<mxfile host="app.diagrams.net" modified="2022-07-22T02:17:43.214Z" agent="5.0 (Windows NT 10.0; Win64; x64) AppleWebKit/537.36 (KHTML, like Gecko) Chrome/103.0.5060.114 Safari/537.36 Edg/103.0.1264.62" etag="z0RGiZvFldNM3VQm2soT" version="20.1.1" type="github">
  <diagram id="QLmV2n81qbRRbwVWLe8y" name="Page-1">
    <mxGraphModel dx="999" dy="463" grid="1" gridSize="10" guides="1" tooltips="1" connect="1" arrows="1" fold="1" page="1" pageScale="1" pageWidth="827" pageHeight="1169" math="0" shadow="0">
      <root>
        <mxCell id="0" />
        <mxCell id="1" parent="0" />
        <mxCell id="EUbpw8QoGtU3My3aGAP4-1" value="" style="rounded=0;whiteSpace=wrap;html=1;" vertex="1" parent="1">
          <mxGeometry x="230" y="250" width="150" height="100" as="geometry" />
        </mxCell>
        <mxCell id="EUbpw8QoGtU3My3aGAP4-3" value="" style="rounded=0;whiteSpace=wrap;html=1;" vertex="1" parent="1">
          <mxGeometry x="380" y="250" width="150" height="100" as="geometry" />
        </mxCell>
        <mxCell id="EUbpw8QoGtU3My3aGAP4-4" value="" style="rounded=0;whiteSpace=wrap;html=1;" vertex="1" parent="1">
          <mxGeometry x="230" y="350" width="150" height="100" as="geometry" />
        </mxCell>
        <mxCell id="EUbpw8QoGtU3My3aGAP4-5" value="" style="rounded=0;whiteSpace=wrap;html=1;" vertex="1" parent="1">
          <mxGeometry x="380" y="350" width="150" height="100" as="geometry" />
        </mxCell>
        <mxCell id="EUbpw8QoGtU3My3aGAP4-18" value="" style="shape=waypoint;sketch=0;size=6;pointerEvents=1;points=[];fillColor=none;resizable=0;rotatable=0;perimeter=centerPerimeter;snapToPoint=1;" vertex="1" parent="1">
          <mxGeometry x="285" y="280" width="40" height="40" as="geometry" />
        </mxCell>
        <mxCell id="EUbpw8QoGtU3My3aGAP4-19" value="" style="shape=waypoint;sketch=0;size=6;pointerEvents=1;points=[];fillColor=none;resizable=0;rotatable=0;perimeter=centerPerimeter;snapToPoint=1;" vertex="1" parent="1">
          <mxGeometry x="435" y="380" width="40" height="40" as="geometry" />
        </mxCell>
        <mxCell id="EUbpw8QoGtU3My3aGAP4-26" value="" style="endArrow=classic;html=1;rounded=0;exitX=0.554;exitY=0.6;exitDx=0;exitDy=0;exitPerimeter=0;" edge="1" parent="1" source="EUbpw8QoGtU3My3aGAP4-18" target="EUbpw8QoGtU3My3aGAP4-19">
          <mxGeometry width="50" height="50" relative="1" as="geometry">
            <mxPoint x="140" y="140" as="sourcePoint" />
            <mxPoint x="460" y="290" as="targetPoint" />
          </mxGeometry>
        </mxCell>
        <mxCell id="EUbpw8QoGtU3My3aGAP4-27" value="" style="ellipse;whiteSpace=wrap;html=1;aspect=fixed;" vertex="1" parent="1">
          <mxGeometry x="440" y="280" width="40" height="40" as="geometry" />
        </mxCell>
        <mxCell id="EUbpw8QoGtU3My3aGAP4-17" value="" style="shape=waypoint;sketch=0;size=6;pointerEvents=1;points=[];fillColor=none;resizable=0;rotatable=0;perimeter=centerPerimeter;snapToPoint=1;" vertex="1" parent="1">
          <mxGeometry x="450" y="290" width="40" height="40" as="geometry" />
        </mxCell>
        <mxCell id="EUbpw8QoGtU3My3aGAP4-14" value="" style="shape=waypoint;sketch=0;size=6;pointerEvents=1;points=[];fillColor=none;resizable=0;rotatable=0;perimeter=centerPerimeter;snapToPoint=1;" vertex="1" parent="1">
          <mxGeometry x="435" y="290" width="40" height="40" as="geometry" />
        </mxCell>
        <mxCell id="EUbpw8QoGtU3My3aGAP4-16" value="" style="shape=waypoint;sketch=0;size=6;pointerEvents=1;points=[];fillColor=none;resizable=0;rotatable=0;perimeter=centerPerimeter;snapToPoint=1;" vertex="1" parent="1">
          <mxGeometry x="450" y="280" width="40" height="40" as="geometry" />
        </mxCell>
        <mxCell id="EUbpw8QoGtU3My3aGAP4-22" value="" style="endArrow=classic;html=1;rounded=0;" edge="1" parent="1" source="EUbpw8QoGtU3My3aGAP4-16" target="EUbpw8QoGtU3My3aGAP4-18">
          <mxGeometry width="50" height="50" relative="1" as="geometry">
            <mxPoint x="430" y="300" as="sourcePoint" />
            <mxPoint x="460" y="290" as="targetPoint" />
          </mxGeometry>
        </mxCell>
        <mxCell id="EUbpw8QoGtU3My3aGAP4-28" value="&lt;font style=&quot;font-size: 8px;&quot;&gt;重复打点&lt;/font&gt;" style="text;html=1;align=center;verticalAlign=middle;resizable=0;points=[];autosize=1;strokeColor=none;fillColor=none;fontSize=12;fontFamily=Helvetica;fontColor=default;" vertex="1" parent="1">
          <mxGeometry x="460" y="250" width="70" height="30" as="geometry" />
        </mxCell>
        <mxCell id="EUbpw8QoGtU3My3aGAP4-29" value="&lt;font style=&quot;font-size: 8px;&quot;&gt;geohash6-1&lt;/font&gt;" style="text;html=1;align=center;verticalAlign=middle;resizable=0;points=[];autosize=1;strokeColor=none;fillColor=none;fontSize=8;fontFamily=Helvetica;fontColor=default;" vertex="1" parent="1">
          <mxGeometry x="440" y="320" width="90" height="30" as="geometry" />
        </mxCell>
        <mxCell id="EUbpw8QoGtU3My3aGAP4-30" value="&lt;font style=&quot;font-size: 8px;&quot;&gt;geohash6-4&lt;/font&gt;" style="text;html=1;align=center;verticalAlign=middle;resizable=0;points=[];autosize=1;strokeColor=none;fillColor=none;fontSize=8;fontFamily=Helvetica;fontColor=default;" vertex="1" parent="1">
          <mxGeometry x="440" y="420" width="90" height="30" as="geometry" />
        </mxCell>
        <mxCell id="EUbpw8QoGtU3My3aGAP4-31" value="&lt;font style=&quot;font-size: 8px;&quot;&gt;geohash6-3&lt;/font&gt;" style="text;html=1;align=center;verticalAlign=middle;resizable=0;points=[];autosize=1;strokeColor=none;fillColor=none;fontSize=8;fontFamily=Helvetica;fontColor=default;" vertex="1" parent="1">
          <mxGeometry x="220" y="420" width="90" height="30" as="geometry" />
        </mxCell>
        <mxCell id="EUbpw8QoGtU3My3aGAP4-32" value="&lt;font style=&quot;font-size: 8px;&quot;&gt;geohash6-2&lt;/font&gt;" style="text;html=1;align=center;verticalAlign=middle;resizable=0;points=[];autosize=1;strokeColor=none;fillColor=none;fontSize=8;fontFamily=Helvetica;fontColor=default;" vertex="1" parent="1">
          <mxGeometry x="220" y="320" width="90" height="30" as="geometry" />
        </mxCell>
        <mxCell id="EUbpw8QoGtU3My3aGAP4-33" value="DAY1" style="text;html=1;align=center;verticalAlign=middle;resizable=0;points=[];autosize=1;strokeColor=none;fillColor=none;fontSize=8;fontFamily=Helvetica;fontColor=default;" vertex="1" parent="1">
          <mxGeometry x="225" y="225" width="50" height="30" as="geometry" />
        </mxCell>
      </root>
    </mxGraphModel>
  </diagram>
</mxfile>
